G04*
G04 #@! TF.GenerationSoftware,Altium Limited,Altium Designer,23.0.1 (38)*
G04*
G04 Layer_Color=16711935*
%FSLAX44Y44*%
%MOMM*%
G71*
G04*
G04 #@! TF.SameCoordinates,278B54D9-4E47-4627-BFE0-AB0D658CC5A2*
G04*
G04*
G04 #@! TF.FilePolarity,Negative*
G04*
G01*
G75*
%ADD11C,0.9532*%
%ADD12C,3.2032*%
%ADD13C,0.5032*%
%ADD17R,0.7000X0.3000*%
%ADD18R,1.0000X0.3000*%
G04:AMPARAMS|DCode=20|XSize=1.7032mm|YSize=4.2032mm|CornerRadius=0.2141mm|HoleSize=0mm|Usage=FLASHONLY|Rotation=180.000|XOffset=0mm|YOffset=0mm|HoleType=Round|Shape=RoundedRectangle|*
%AMROUNDEDRECTD20*
21,1,1.7032,3.7750,0,0,180.0*
21,1,1.2750,4.2032,0,0,180.0*
1,1,0.4282,-0.6375,1.8875*
1,1,0.4282,0.6375,1.8875*
1,1,0.4282,0.6375,-1.8875*
1,1,0.4282,-0.6375,-1.8875*
%
%ADD20ROUNDEDRECTD20*%
G36*
X90000Y124150D02*
X87500D01*
X87500Y175000D01*
X63000Y175000D01*
Y124150D01*
X47000D01*
Y120305D01*
X20000D01*
Y84250D01*
X47000Y84250D01*
Y80150D01*
X61637D01*
Y30000D01*
X87500D01*
Y80150D01*
X90000D01*
Y0D01*
X0D01*
Y204300D01*
X90000D01*
Y124150D01*
D02*
G37*
D11*
X37900Y92150D02*
D03*
Y112150D02*
D03*
X27900Y102150D02*
D03*
D12*
X37900Y54150D02*
D03*
Y150150D02*
D03*
D13*
X82000Y194000D02*
D03*
X86000Y186000D02*
D03*
X82000Y178001D02*
D03*
X86000Y26000D02*
D03*
X82000Y18000D02*
D03*
X86000Y10000D02*
D03*
X82000Y2000D02*
D03*
X74000Y194000D02*
D03*
X78000Y186000D02*
D03*
X74000Y178001D02*
D03*
X78000Y26000D02*
D03*
X74000Y18000D02*
D03*
X78000Y10000D02*
D03*
X74000Y2000D02*
D03*
X66000Y194000D02*
D03*
X70000Y186000D02*
D03*
X66000Y178001D02*
D03*
X70000Y26000D02*
D03*
X66000Y18000D02*
D03*
X70000Y10000D02*
D03*
X66000Y2000D02*
D03*
X58000Y194000D02*
D03*
X62000Y186000D02*
D03*
X58000Y178001D02*
D03*
Y162001D02*
D03*
Y146000D02*
D03*
Y130000D02*
D03*
Y66000D02*
D03*
Y50000D02*
D03*
Y34000D02*
D03*
X62000Y26000D02*
D03*
X58000Y18000D02*
D03*
X62000Y10000D02*
D03*
X58000Y2000D02*
D03*
X50000Y194000D02*
D03*
X54000Y186000D02*
D03*
X50000Y178001D02*
D03*
X54000Y170000D02*
D03*
Y138000D02*
D03*
X50000Y130000D02*
D03*
Y82000D02*
D03*
X54000Y74000D02*
D03*
Y42000D02*
D03*
X50000Y34000D02*
D03*
X54000Y26000D02*
D03*
X50000Y18000D02*
D03*
X54000Y10000D02*
D03*
X50000Y2000D02*
D03*
X42000Y194000D02*
D03*
X46000Y186000D02*
D03*
X42000Y178001D02*
D03*
X46000Y170000D02*
D03*
X42000Y130000D02*
D03*
X46000Y122000D02*
D03*
Y74000D02*
D03*
X42000Y34000D02*
D03*
X46000Y26000D02*
D03*
X42000Y18000D02*
D03*
X46000Y10000D02*
D03*
X42000Y2000D02*
D03*
X34000Y194000D02*
D03*
X38000Y186000D02*
D03*
X34000Y178001D02*
D03*
X38000Y170000D02*
D03*
X34000Y130000D02*
D03*
Y82000D02*
D03*
X38000Y74000D02*
D03*
X34000Y34000D02*
D03*
X38000Y26000D02*
D03*
X34000Y18000D02*
D03*
X38000Y10000D02*
D03*
X34000Y2000D02*
D03*
X26000Y194000D02*
D03*
X30000Y186000D02*
D03*
X26000Y178001D02*
D03*
X30000Y170000D02*
D03*
X26000Y130000D02*
D03*
X30000Y122000D02*
D03*
X26000Y82000D02*
D03*
X30000Y74000D02*
D03*
X26000Y34000D02*
D03*
X30000Y26000D02*
D03*
X26000Y18000D02*
D03*
X30000Y10000D02*
D03*
X26000Y2000D02*
D03*
X18000Y194000D02*
D03*
X22000Y186000D02*
D03*
X18000Y178001D02*
D03*
X22000Y170000D02*
D03*
X18000Y162001D02*
D03*
Y146000D02*
D03*
X22000Y138000D02*
D03*
X18000Y130000D02*
D03*
X22000Y122000D02*
D03*
X18000Y114000D02*
D03*
Y82000D02*
D03*
X22000Y74000D02*
D03*
X18000Y66000D02*
D03*
Y50000D02*
D03*
X22000Y42000D02*
D03*
X18000Y34000D02*
D03*
X22000Y26000D02*
D03*
X18000Y18000D02*
D03*
X22000Y10000D02*
D03*
X10000Y194000D02*
D03*
X14000Y186000D02*
D03*
X10000Y178001D02*
D03*
X14000Y170000D02*
D03*
X10000Y162001D02*
D03*
X14000Y154001D02*
D03*
X10000Y146000D02*
D03*
X14000Y138000D02*
D03*
X10000Y130000D02*
D03*
X14000Y122000D02*
D03*
X10000Y114000D02*
D03*
X14000Y106000D02*
D03*
X10000Y98000D02*
D03*
X14000Y90000D02*
D03*
X10000Y82000D02*
D03*
X14000Y74000D02*
D03*
X10000Y66000D02*
D03*
X14000Y58000D02*
D03*
X10000Y50000D02*
D03*
X14000Y42000D02*
D03*
X10000Y34000D02*
D03*
X14000Y26000D02*
D03*
X10000Y18000D02*
D03*
X14000Y10000D02*
D03*
X10000Y2000D02*
D03*
X2000Y194000D02*
D03*
X6000Y186000D02*
D03*
X2000Y178001D02*
D03*
X6000Y170000D02*
D03*
X2000Y162001D02*
D03*
X6000Y154001D02*
D03*
X2000Y146000D02*
D03*
X6000Y138000D02*
D03*
X2000Y130000D02*
D03*
X6000Y122000D02*
D03*
X2000Y114000D02*
D03*
X6000Y106000D02*
D03*
X2000Y98000D02*
D03*
X6000Y90000D02*
D03*
X2000Y82000D02*
D03*
X6000Y74000D02*
D03*
X2000Y66000D02*
D03*
X6000Y58000D02*
D03*
X2000Y50000D02*
D03*
X6000Y42000D02*
D03*
X2000Y34000D02*
D03*
X6000Y26000D02*
D03*
X2000Y18000D02*
D03*
X6000Y10000D02*
D03*
X2000Y2000D02*
D03*
D17*
X55000Y112150D02*
D03*
Y107150D02*
D03*
Y102150D02*
D03*
Y97150D02*
D03*
Y92150D02*
D03*
D18*
X81500Y120050D02*
D03*
Y84250D02*
D03*
D20*
X75000Y150150D02*
D03*
Y54150D02*
D03*
M02*
