G04*
G04 #@! TF.GenerationSoftware,Altium Limited,Altium Designer,23.0.1 (38)*
G04*
G04 Layer_Color=2752767*
%FSLAX44Y44*%
%MOMM*%
G71*
G04*
G04 #@! TF.SameCoordinates,65427CA3-CDEB-440B-8F62-8CDC3D744184*
G04*
G04*
G04 #@! TF.FilePolarity,Positive*
G04*
G01*
G75*
%ADD22C,0.1270*%
%ADD23C,0.1693*%
D22*
X32820Y87070D02*
Y97230D01*
X42980D01*
Y87070D01*
X32820D01*
Y107070D02*
Y117230D01*
X42980D01*
Y107070D01*
X32820D01*
X22820Y97070D02*
Y107230D01*
X32980D01*
Y97070D01*
X22820D01*
X25124Y87899D02*
X20044Y98059D01*
X30204D01*
X25124Y87899D01*
X20144Y91141D02*
X15064Y101301D01*
X25224D01*
X20144Y91141D01*
X18076Y96920D02*
X12996Y107080D01*
X23156D01*
X18076Y96920D01*
X19909Y102276D02*
X14829Y112436D01*
X24989D01*
X19909Y102276D01*
X24560Y106035D02*
X19481Y116195D01*
X29641D01*
X24560Y106035D01*
X50433Y113427D02*
X45353Y123587D01*
X55513D01*
X50433Y113427D01*
X55281D02*
X50201Y123587D01*
X60361D01*
X55281Y113427D01*
X60174Y113106D02*
X55094Y123266D01*
X65255D01*
X60174Y113106D01*
X64748Y114707D02*
X59668Y124867D01*
X69828D01*
X64748Y114707D01*
X65617Y100484D02*
X60537Y110644D01*
X70697D01*
X65617Y100484D01*
X69093Y103868D02*
X64013Y114028D01*
X74173D01*
X69093Y103868D01*
X67126Y91794D02*
X62046Y101954D01*
X72206D01*
X67126Y91794D01*
X70968Y88410D02*
X65888Y98570D01*
X76048D01*
X70968Y88410D01*
X62370Y80498D02*
X57290Y90658D01*
X67450D01*
X62370Y80498D01*
X56882Y79537D02*
X51802Y89697D01*
X61962D01*
X56882Y79537D01*
X51302Y79766D02*
X46222Y89926D01*
X56382D01*
X51302Y79766D01*
X44259Y112055D02*
X39179Y122215D01*
X49339D01*
X44259Y112055D01*
X42841Y81367D02*
X37761Y91527D01*
X47921D01*
X42841Y81367D01*
X33048Y81580D02*
X27968Y91740D01*
X38128D01*
X33048Y81580D01*
X47000Y97070D02*
X41920Y107230D01*
X52080D01*
X47000Y97070D01*
X43016Y94007D02*
X37936Y104167D01*
X48096D01*
X43016Y94007D01*
X36630D02*
X31550Y104167D01*
X41710D01*
X36630Y94007D01*
X30813Y85881D02*
X25733Y96041D01*
X35893D01*
X30813Y85881D01*
X37712Y79746D02*
X32632Y89907D01*
X42792D01*
X37712Y79746D01*
X46965Y83483D02*
X41885Y93644D01*
X52045D01*
X46965Y83483D01*
X64952Y76349D02*
X59872Y86509D01*
X70032D01*
X64952Y76349D01*
Y71349D02*
X59872Y81509D01*
X70032D01*
X64952Y71349D01*
X63839Y66475D02*
X58759Y76635D01*
X68919D01*
X63839Y66475D01*
Y61475D02*
X58759Y71635D01*
X68919D01*
X63839Y61475D01*
Y56475D02*
X58759Y66635D01*
X68919D01*
X63839Y56475D01*
Y51475D02*
X58759Y61635D01*
X68919D01*
X63839Y51475D01*
Y46475D02*
X58759Y56635D01*
X68919D01*
X63839Y46475D01*
Y41475D02*
X58759Y51635D01*
X68919D01*
X63839Y41475D01*
Y36475D02*
X58759Y46635D01*
X68919D01*
X63839Y36475D01*
Y31475D02*
X58759Y41635D01*
X68919D01*
X63839Y31475D01*
X70205Y25409D02*
X65125Y35569D01*
X75285D01*
X70205Y25409D01*
X75205D02*
X70125Y35569D01*
X80285D01*
X75205Y25409D01*
X80204D02*
X75125Y35569D01*
X85285D01*
X80204Y25409D01*
X86161Y31903D02*
X81081Y42063D01*
X91241D01*
X86161Y31903D01*
Y36903D02*
X81081Y47063D01*
X91241D01*
X86161Y36903D01*
Y41903D02*
X81081Y52063D01*
X91241D01*
X86161Y41903D01*
Y46903D02*
X81081Y57063D01*
X91241D01*
X86161Y46903D01*
Y51903D02*
X81081Y62063D01*
X91241D01*
X86161Y51903D01*
Y56903D02*
X81081Y67063D01*
X91241D01*
X86161Y56903D01*
Y61903D02*
X81081Y72063D01*
X91241D01*
X86161Y61903D01*
Y66903D02*
X81081Y77063D01*
X91241D01*
X86161Y66903D01*
X79523Y72731D02*
X74443Y82891D01*
X84603D01*
X79523Y72731D01*
X74838Y74479D02*
X69758Y84639D01*
X79918D01*
X74838Y74479D01*
Y79479D02*
X69758Y89639D01*
X79918D01*
X74838Y79479D01*
X74195Y84437D02*
X69115Y94597D01*
X79275D01*
X74195Y84437D01*
X76665Y168731D02*
X71585Y178891D01*
X81745D01*
X76665Y168731D01*
X71665D02*
X66585Y178891D01*
X76745D01*
X71665Y168731D01*
X66691Y168224D02*
X61611Y178384D01*
X71771D01*
X66691Y168224D01*
X63869Y164096D02*
X58789Y174256D01*
X68949D01*
X63869Y164096D01*
X63839Y159096D02*
X58759Y169256D01*
X68919D01*
X63839Y159096D01*
Y154096D02*
X58759Y164256D01*
X68919D01*
X63839Y154096D01*
Y149096D02*
X58759Y159256D01*
X68919D01*
X63839Y149096D01*
Y144096D02*
X58759Y154256D01*
X68919D01*
X63839Y144096D01*
Y139096D02*
X58759Y149256D01*
X68919D01*
X63839Y139096D01*
Y134096D02*
X58759Y144256D01*
X68919D01*
X63839Y134096D01*
Y129096D02*
X58759Y139256D01*
X68919D01*
X63839Y129096D01*
X64401Y124128D02*
X59321Y134288D01*
X69481D01*
X64401Y124128D01*
X64952Y119159D02*
X59872Y129319D01*
X70032D01*
X64952Y119159D01*
X48672Y109907D02*
X43592Y120067D01*
X53752D01*
X48672Y109907D01*
X39766Y114161D02*
X34686Y124321D01*
X44846D01*
X39766Y114161D01*
X34787Y113707D02*
X29707Y123867D01*
X39867D01*
X34787Y113707D01*
X31256Y110167D02*
X26176Y120327D01*
X36336D01*
X31256Y110167D01*
X30813Y105187D02*
X25733Y115347D01*
X35893D01*
X30813Y105187D01*
X36630Y99747D02*
X31550Y109907D01*
X41710D01*
X36630Y99747D01*
X42841D02*
X37761Y109907D01*
X47921D01*
X42841Y99747D01*
X63000Y97070D02*
X57920Y107230D01*
X68080D01*
X63000Y97070D01*
X72794Y107874D02*
X67715Y118034D01*
X77874D01*
X72794Y107874D01*
X74838Y112437D02*
X69758Y122597D01*
X79918D01*
X74838Y112437D01*
Y117437D02*
X69758Y127597D01*
X79918D01*
X74838Y117437D01*
X77875Y121409D02*
X72795Y131569D01*
X82955D01*
X77875Y121409D01*
X82865Y121732D02*
X77785Y131892D01*
X87945D01*
X82865Y121732D01*
X86041Y125593D02*
X80962Y135753D01*
X91122D01*
X86041Y125593D01*
X86161Y130592D02*
X81081Y140752D01*
X91241D01*
X86161Y130592D01*
Y135592D02*
X81081Y145752D01*
X91241D01*
X86161Y135592D01*
Y140592D02*
X81081Y150752D01*
X91241D01*
X86161Y140592D01*
Y145592D02*
X81081Y155752D01*
X91241D01*
X86161Y145592D01*
Y150592D02*
X81081Y160752D01*
X91241D01*
X86161Y150592D01*
Y155592D02*
X81081Y165752D01*
X91241D01*
X86161Y155592D01*
Y160592D02*
X81081Y170752D01*
X91241D01*
X86161Y160592D01*
X85779Y165577D02*
X80699Y175737D01*
X90859D01*
X85779Y165577D01*
X81828Y168641D02*
X76748Y178801D01*
X86908D01*
X81828Y168641D01*
D23*
X42980Y54150D02*
G03*
X42980Y54150I-5080J0D01*
G01*
Y150150D02*
G03*
X42980Y150150I-5080J0D01*
G01*
M02*
