M48
;Layer_Color=9474304
;FILE_FORMAT=4:4
METRIC,LZ
;TYPE=PLATED
T1F00S00C0.3000
T2F00S00C0.5500
T3F00S00C2.4000
%
T01
X00063839Y00036555
Y00041555
Y00046555
Y00051555
Y00056555
Y00061555
Y00066555
Y00071555
X00064952Y00076429
Y00081429
X0006237Y00085578
X00056882Y00084617
X00051302Y00084846
X00046965Y00088563
X00042841Y00086447
X00037712Y00084826
X00033048Y0008666
X00030813Y00090961
X00025124Y00092979
X00020144Y00096221
X00018076Y00102
X00019909Y00107356
X0002456Y00111115
X00030813Y00110267
X00031256Y00115247
X00034787Y00118787
X00039766Y00119241
X00044259Y00117135
X00048672Y00114987
X00050433Y00118507
X00055281
X00060174Y00118187
X00064748Y00119787
X00064952Y00124239
X00064401Y00129208
X00063839Y00134177
Y00139177
X00086161Y00140672
Y00135672
X00086041Y00130673
X00082865Y00126812
X00077875Y00126489
X00074838Y00122517
Y00117517
X00072794Y00112954
X00069093Y00108948
X00065617Y00105564
X00063Y0010215
X00067126Y00096874
X00070968Y0009349
X00074195Y00089517
X00074838Y00084559
Y00079559
X00079523Y00077811
X00086161Y00071983
Y00066983
Y00061983
Y00056983
Y00051983
Y00046983
Y00041983
Y00036983
X00080204Y00030489
X00075205
X00070205
X00047Y0010215
X00042841Y00104826
X00043016Y00099087
X0003663
Y00104826
X00063839Y00144177
Y00149177
Y00154177
Y00159176
Y00164176
X00063869Y00169176
X00066691Y00173304
X00071665Y00173811
X00076665
X00081828Y00173721
X00085779Y00170657
X00086161Y00165672
Y00160672
Y00155672
Y00150672
Y00145672
T02
X000379Y0009215
Y0011215
X000279Y0010215
T03
X000379Y0005415
Y0015015
M30
