G04*
G04 #@! TF.GenerationSoftware,Altium Limited,Altium Designer,23.0.1 (38)*
G04*
G04 Layer_Physical_Order=2*
G04 Layer_Color=16711680*
%FSLAX44Y44*%
%MOMM*%
G71*
G04*
G04 #@! TF.SameCoordinates,2D7356CF-675D-4ACF-94B8-B66EBF17F18F*
G04*
G04*
G04 #@! TF.FilePolarity,Positive*
G04*
G01*
G75*
%ADD10C,0.2540*%
%ADD14C,0.7500*%
%ADD15C,3.0000*%
%ADD16C,0.3000*%
%ADD17R,0.7000X0.3000*%
%ADD18R,1.0000X0.3000*%
G04:AMPARAMS|DCode=19|XSize=1.5mm|YSize=4mm|CornerRadius=0.1125mm|HoleSize=0mm|Usage=FLASHONLY|Rotation=180.000|XOffset=0mm|YOffset=0mm|HoleType=Round|Shape=RoundedRectangle|*
%AMROUNDEDRECTD19*
21,1,1.5000,3.7750,0,0,180.0*
21,1,1.2750,4.0000,0,0,180.0*
1,1,0.2250,-0.6375,1.8875*
1,1,0.2250,0.6375,1.8875*
1,1,0.2250,0.6375,-1.8875*
1,1,0.2250,-0.6375,-1.8875*
%
%ADD19ROUNDEDRECTD19*%
G36*
X100000Y0D02*
X0D01*
Y204300D01*
X100000D01*
Y0D01*
D02*
G37*
%LPC*%
G36*
X39627Y167690D02*
X39170D01*
Y151420D01*
X55440D01*
Y151877D01*
X54766Y155266D01*
X53444Y158458D01*
X51524Y161331D01*
X49081Y163774D01*
X46208Y165694D01*
X43016Y167016D01*
X39627Y167690D01*
D02*
G37*
G36*
X36630D02*
X36172D01*
X32784Y167016D01*
X29592Y165694D01*
X26719Y163774D01*
X24276Y161331D01*
X22356Y158458D01*
X21034Y155266D01*
X20360Y151877D01*
Y151420D01*
X36630D01*
Y167690D01*
D02*
G37*
G36*
X55440Y148880D02*
X39170D01*
Y132610D01*
X39627D01*
X43016Y133284D01*
X46208Y134606D01*
X49081Y136526D01*
X51524Y138969D01*
X53444Y141842D01*
X54766Y145034D01*
X55440Y148422D01*
Y148880D01*
D02*
G37*
G36*
X36630D02*
X20360D01*
Y148422D01*
X21034Y145034D01*
X22356Y141842D01*
X24276Y138969D01*
X26719Y136526D01*
X29592Y134606D01*
X32784Y133284D01*
X36172Y132610D01*
X36630D01*
Y148880D01*
D02*
G37*
G36*
X87500Y122550D02*
X75500D01*
Y117550D01*
X87500D01*
Y122550D01*
D02*
G37*
G36*
X81375Y171192D02*
X68625D01*
X67796Y171027D01*
X67093Y170557D01*
X66623Y169854D01*
X66458Y169025D01*
Y131275D01*
X66623Y130446D01*
X67093Y129743D01*
X67580Y129417D01*
Y118004D01*
X62213Y112636D01*
X61040Y113123D01*
Y116190D01*
X56270D01*
Y112150D01*
X53730D01*
Y116190D01*
X48960D01*
Y112734D01*
X47787Y112248D01*
X47097Y112938D01*
X46346Y113440D01*
X45460Y113616D01*
X42434D01*
X41927Y114841D01*
X40591Y116177D01*
X38845Y116900D01*
X36955D01*
X35209Y116177D01*
X33873Y114841D01*
X33150Y113095D01*
Y111205D01*
X33873Y109459D01*
X35209Y108123D01*
X36955Y107400D01*
X38845D01*
X40591Y108123D01*
X41455Y108987D01*
X44501D01*
X47975Y105513D01*
X48726Y105012D01*
X48960Y104965D01*
Y103420D01*
X55000D01*
X61040D01*
Y105115D01*
X61637Y105513D01*
X71532Y115408D01*
X72033Y116159D01*
X72210Y117045D01*
Y129108D01*
X81375D01*
X82204Y129273D01*
X82907Y129743D01*
X83377Y130446D01*
X83542Y131275D01*
Y169025D01*
X83377Y169854D01*
X82907Y170557D01*
X82204Y171027D01*
X81375Y171192D01*
D02*
G37*
G36*
X29170Y108432D02*
Y103420D01*
X34182D01*
X33232Y105713D01*
X31463Y107482D01*
X29170Y108432D01*
D02*
G37*
G36*
X26630D02*
X24337Y107482D01*
X22568Y105713D01*
X21618Y103420D01*
X26630D01*
Y108432D01*
D02*
G37*
G36*
X34182Y100880D02*
X29170D01*
Y95868D01*
X31463Y96818D01*
X33232Y98587D01*
X34182Y100880D01*
D02*
G37*
G36*
X26630D02*
X21618D01*
X22568Y98587D01*
X24337Y96818D01*
X26630Y95868D01*
Y100880D01*
D02*
G37*
G36*
X61040D02*
X55000D01*
X48960D01*
Y99392D01*
X48436Y99288D01*
X47685Y98786D01*
X44313Y95414D01*
X41354D01*
X40591Y96177D01*
X38845Y96900D01*
X36955D01*
X35209Y96177D01*
X33873Y94841D01*
X33150Y93095D01*
Y91205D01*
X33873Y89459D01*
X35209Y88123D01*
X36955Y87400D01*
X38845D01*
X40591Y88123D01*
X41927Y89459D01*
X42476Y90785D01*
X45271D01*
X46157Y90961D01*
X46908Y91462D01*
X47787Y92341D01*
X48960Y91855D01*
Y88110D01*
X53730D01*
Y92150D01*
X56270D01*
Y88110D01*
X61040D01*
Y91178D01*
X62213Y91664D01*
X67580Y86296D01*
Y74883D01*
X67093Y74557D01*
X66623Y73854D01*
X66458Y73025D01*
Y35275D01*
X66623Y34446D01*
X67093Y33743D01*
X67796Y33273D01*
X68625Y33108D01*
X81375D01*
X82204Y33273D01*
X82907Y33743D01*
X83377Y34446D01*
X83542Y35275D01*
Y73025D01*
X83377Y73854D01*
X82907Y74557D01*
X82204Y75027D01*
X81375Y75192D01*
X72210D01*
Y87255D01*
X72033Y88141D01*
X71532Y88892D01*
X61637Y98787D01*
X61040Y99185D01*
Y100880D01*
D02*
G37*
G36*
X87500Y86750D02*
X75500D01*
Y81750D01*
X87500D01*
Y86750D01*
D02*
G37*
G36*
X39627Y71690D02*
X39170D01*
Y55420D01*
X55440D01*
Y55877D01*
X54766Y59266D01*
X53444Y62458D01*
X51524Y65331D01*
X49081Y67774D01*
X46208Y69694D01*
X43016Y71016D01*
X39627Y71690D01*
D02*
G37*
G36*
X36630D02*
X36172D01*
X32784Y71016D01*
X29592Y69694D01*
X26719Y67774D01*
X24276Y65331D01*
X22356Y62458D01*
X21034Y59266D01*
X20360Y55877D01*
Y55420D01*
X36630D01*
Y71690D01*
D02*
G37*
G36*
X55440Y52880D02*
X39170D01*
Y36610D01*
X39627D01*
X43016Y37284D01*
X46208Y38606D01*
X49081Y40526D01*
X51524Y42969D01*
X53444Y45842D01*
X54766Y49034D01*
X55440Y52422D01*
Y52880D01*
D02*
G37*
G36*
X36630D02*
X20360D01*
Y52422D01*
X21034Y49034D01*
X22356Y45842D01*
X24276Y42969D01*
X26719Y40526D01*
X29592Y38606D01*
X32784Y37284D01*
X36172Y36610D01*
X36630D01*
Y52880D01*
D02*
G37*
%LPD*%
D10*
X60000Y97150D02*
X69895Y87255D01*
Y59255D02*
Y87255D01*
X45271Y93099D02*
X49322Y97150D01*
X55000Y97150D02*
X60000D01*
X69895Y59255D02*
X75000Y54150D01*
X60000Y107150D02*
X69895Y117045D01*
Y145045D02*
X75000Y150150D01*
X69895Y117045D02*
Y145045D01*
X55000Y107150D02*
X60000D01*
X49612D02*
X55000D01*
X49612Y107150D02*
X49612Y107150D01*
X45460Y111302D02*
X49612Y107150D01*
X37900Y112150D02*
X38748Y111302D01*
X45460D01*
X49612Y97150D02*
X49612Y97150D01*
X49322Y97150D02*
X49612D01*
X49612Y97150D02*
X55000D01*
X37900Y92150D02*
X38849Y93099D01*
X45271D01*
X37900Y112150D02*
X38592D01*
D14*
X37900Y92150D02*
D03*
Y112150D02*
D03*
X27900Y102150D02*
D03*
D15*
X37900Y54150D02*
D03*
Y150150D02*
D03*
D16*
X76000Y89500D02*
D03*
X68000Y99392D02*
D03*
X73000Y111205D02*
D03*
X91000Y196000D02*
D03*
X86000Y186000D02*
D03*
X91000Y116000D02*
D03*
X86000Y106000D02*
D03*
X91000Y96000D02*
D03*
X86000Y26000D02*
D03*
X91000Y16000D02*
D03*
X86000Y6000D02*
D03*
X81000Y196000D02*
D03*
X76000Y186000D02*
D03*
Y106000D02*
D03*
X81000Y96000D02*
D03*
Y16000D02*
D03*
X76000Y6000D02*
D03*
X71000Y196000D02*
D03*
X66000Y186000D02*
D03*
Y26000D02*
D03*
X71000Y16000D02*
D03*
X66000Y6000D02*
D03*
X61000Y196000D02*
D03*
X56000Y186000D02*
D03*
Y166000D02*
D03*
Y126000D02*
D03*
Y66000D02*
D03*
Y26000D02*
D03*
X61000Y16000D02*
D03*
X56000Y6000D02*
D03*
X51000Y196000D02*
D03*
X46000Y186000D02*
D03*
X51000Y176000D02*
D03*
X46000Y126000D02*
D03*
X51000Y76000D02*
D03*
Y36000D02*
D03*
X46000Y26000D02*
D03*
X51000Y16000D02*
D03*
X46000Y6000D02*
D03*
X41000Y196000D02*
D03*
X36000Y186000D02*
D03*
X41000Y176000D02*
D03*
Y76000D02*
D03*
X36000Y26000D02*
D03*
X41000Y16000D02*
D03*
X36000Y6000D02*
D03*
X31000Y196000D02*
D03*
X26000Y186000D02*
D03*
X31000Y176000D02*
D03*
X26000Y126000D02*
D03*
X31000Y76000D02*
D03*
X26000Y26000D02*
D03*
X31000Y16000D02*
D03*
X26000Y6000D02*
D03*
X21000Y196000D02*
D03*
X16000Y186000D02*
D03*
X21000Y176000D02*
D03*
X16000Y166000D02*
D03*
Y146000D02*
D03*
X21000Y136000D02*
D03*
X16000Y126000D02*
D03*
X21000Y116000D02*
D03*
X16000Y86000D02*
D03*
X21000Y76000D02*
D03*
X16000Y66000D02*
D03*
Y46000D02*
D03*
X21000Y36000D02*
D03*
X16000Y26000D02*
D03*
X21000Y16000D02*
D03*
X16000Y6000D02*
D03*
X11000Y196000D02*
D03*
X6000Y186000D02*
D03*
X11000Y176000D02*
D03*
X6000Y166000D02*
D03*
X11000Y156000D02*
D03*
X6000Y146000D02*
D03*
X11000Y136000D02*
D03*
X6000Y126000D02*
D03*
X11000Y116000D02*
D03*
X6000Y106000D02*
D03*
X11000Y96000D02*
D03*
X6000Y86000D02*
D03*
X11000Y76000D02*
D03*
X6000Y66000D02*
D03*
X11000Y56000D02*
D03*
X6000Y46000D02*
D03*
X11000Y36000D02*
D03*
X6000Y26000D02*
D03*
X11000Y16000D02*
D03*
X6000Y6000D02*
D03*
X73762Y173811D02*
D03*
X65826Y172800D02*
D03*
X63839Y165051D02*
D03*
Y157051D02*
D03*
Y149051D02*
D03*
Y141051D02*
D03*
Y133051D02*
D03*
Y125150D02*
D03*
X31463Y118566D02*
D03*
X75950Y126489D02*
D03*
X83906Y127321D02*
D03*
X86161Y134996D02*
D03*
Y142996D02*
D03*
Y150996D02*
D03*
Y158996D02*
D03*
Y166996D02*
D03*
X81828Y173721D02*
D03*
X37900Y81750D02*
D03*
X64952Y81727D02*
D03*
X63990Y73784D02*
D03*
X63839Y65786D02*
D03*
Y57786D02*
D03*
Y49786D02*
D03*
Y41786D02*
D03*
X64159Y33792D02*
D03*
X71445Y30489D02*
D03*
X79445D02*
D03*
X86094Y34937D02*
D03*
X86161Y42937D02*
D03*
Y50937D02*
D03*
Y58937D02*
D03*
Y66937D02*
D03*
X85670Y74922D02*
D03*
X78210Y77811D02*
D03*
X21000Y91664D02*
D03*
X16000Y105115D02*
D03*
X55000Y120050D02*
D03*
X68000Y104965D02*
D03*
X71532Y94841D02*
D03*
X41927Y102150D02*
D03*
X38845Y124150D02*
D03*
X29170Y87255D02*
D03*
D17*
X55000Y112150D02*
D03*
Y107150D02*
D03*
Y102150D02*
D03*
Y97150D02*
D03*
Y92150D02*
D03*
D18*
X81500Y120050D02*
D03*
Y84250D02*
D03*
D19*
X75000Y150150D02*
D03*
Y54150D02*
D03*
M02*
