M48
;Layer_Color=9474304
;FILE_FORMAT=4:4
METRIC,LZ
;TYPE=PLATED
T1F00S00C0.3000
T2F00S00C0.5500
T3F00S00C2.4000
%
T01
X00002Y00002
X0001
X00018
X00026
X00034
X00042
X0005
X00058
X00066
X00074
X00082
X00086Y0001
X00078
X0007
X00062
X00054
X00046
X00038
X0003
X00022
X00014
X00006
X00002Y00018
X0001
X00018
X00026
X00034
X00042
X0005
X00058
X00066
X00074
X00082
X00086Y00026
X00078
X00080204Y00030489
X00075205
X00070205
X0007Y00026
X00062
X00054
X00046
X00038
X0003
X00022
X00014
X00006
X00002Y00034
X0001
X00018
X00026
X00034
X00042
X0005
X00058
X00063839Y00036555
Y00041555
Y00046555
Y00051555
Y00056555
Y00061555
Y00066555
Y00071555
Y00076973
X00064952Y00081429
X00063611Y00085578
X00058385Y00085582
X00052773
X0005Y00082
X00047218Y00087155
X00042509Y00085821
X00037712Y00084826
X00034Y00082
X00032784Y00087255
X000279Y00089459
X00024276Y00093099
X00020144Y00096221
X00018076Y00102
X00019909Y00107356
X00014Y00106
X00006
X00002Y00114
X0001
X00018
X0002456Y00111115
X00029592Y001129
X0003193Y00117042
X0003Y00122
X00022
X00014
X00006
X00002Y0013
X0001
X00018
X00026
X00034
X00042
X0005
X00058
X00063611Y00129273
X00063839Y00134177
Y00139177
X00054Y00138
X00055281Y00118507
X0006
X00064748Y00119787
X00064952Y00124239
X00075Y00126584
X00080113
X00084958
X00086041Y00130673
X00086161Y00135672
Y00140672
X00082Y00114
X0007418Y00114918
X00069895Y00110267
X00065712Y0010582
X00063611Y00100722
X00067126Y00096874
X00070968Y0009349
X00074Y00098
X00082
X00086Y00106
X00078
X0007422Y00089124
X00074543Y00079718
X00079145Y00077942
X00084392Y00076973
X00086161Y00071983
Y00066983
Y00061983
Y00056983
Y00051983
Y00046983
Y00041983
Y00036983
X00054Y00042
X00058Y0005
Y00066
X00054Y00074
X00046
X00038
X0003
X00022
X00014
X00006
X00002Y00082
X0001
X00018
X00026
X00014Y0009
X00006
X00002Y00098
X0001
X0003663Y00102277
X00041927Y0010215
X00047
X00045784Y00117267
X00046Y00122
X00041726Y00119522
X00036413Y00119844
X00050433Y00118507
X00022Y00138
X00014
X00006
X00002Y00066
X0001
X00018
X00014Y00058
X00006
X00002Y0005
X0001
X00018
X00022Y00042
X00014
X00006
X00086Y0009
X00086161Y00145672
Y00150672
Y00155672
Y00160672
Y00165672
X00085779Y00170657
X00081828Y00173721
X00082Y00178001
X00074
X00071665Y00173811
X00076665
X00066691Y00173304
X00066Y00178001
X00058
X0005
X00042
X00034
X00026
X00018
X0001
X00002
X00006Y00186
X00014
X00022
X0003
X00038
X00046
X00054
X00062
X0007
X00078
X00086
X00082Y00194
X00074
X00066
X00058
X0005
X00042
X00034
X00026
X00018
X0001
X00002
X00006Y0017
X00014
X00022
X0003
X00038
X00046
X00054
X00063869Y00169176
X00063839Y00164176
Y00159176
Y00154177
Y00149177
Y00144177
X00058Y00146
Y00162001
X00018
X0001
X00002
X00006Y00154001
X00014
X0001Y00146
X00018
X00002
T02
X000379Y0009215
Y0011215
X000279Y0010215
T03
X000379Y0005415
Y0015015
M30
