G04*
G04 #@! TF.GenerationSoftware,Altium Limited,Altium Designer,23.0.1 (38)*
G04*
G04 Layer_Color=16711935*
%FSLAX44Y44*%
%MOMM*%
G71*
G04*
G04 #@! TF.SameCoordinates,65427CA3-CDEB-440B-8F62-8CDC3D744184*
G04*
G04*
G04 #@! TF.FilePolarity,Negative*
G04*
G01*
G75*
%ADD11C,0.9532*%
%ADD12C,3.2032*%
%ADD16R,0.7000X0.3000*%
%ADD17R,1.0000X0.3000*%
G04:AMPARAMS|DCode=19|XSize=1.7032mm|YSize=4.2032mm|CornerRadius=0.2141mm|HoleSize=0mm|Usage=FLASHONLY|Rotation=180.000|XOffset=0mm|YOffset=0mm|HoleType=Round|Shape=RoundedRectangle|*
%AMROUNDEDRECTD19*
21,1,1.7032,3.7750,0,0,180.0*
21,1,1.2750,4.2032,0,0,180.0*
1,1,0.4282,-0.6375,1.8875*
1,1,0.4282,0.6375,1.8875*
1,1,0.4282,0.6375,-1.8875*
1,1,0.4282,-0.6375,-1.8875*
%
%ADD19ROUNDEDRECTD19*%
G36*
X90000Y124150D02*
X87500D01*
X87500Y175000D01*
X63000Y175000D01*
Y124150D01*
X47000D01*
Y120305D01*
X20000D01*
Y84250D01*
X47000Y84250D01*
Y80150D01*
X61637D01*
Y30000D01*
X87500D01*
Y80150D01*
X90000D01*
Y0D01*
X0D01*
Y204300D01*
X90000D01*
Y124150D01*
D02*
G37*
D11*
X37900Y92150D02*
D03*
Y112150D02*
D03*
X27900Y102150D02*
D03*
D12*
X37900Y54150D02*
D03*
Y150150D02*
D03*
D16*
X55000Y112150D02*
D03*
Y107150D02*
D03*
Y102150D02*
D03*
Y97150D02*
D03*
Y92150D02*
D03*
D17*
X81500Y120050D02*
D03*
Y84250D02*
D03*
D19*
X75000Y150150D02*
D03*
Y54150D02*
D03*
M02*
