G04*
G04 #@! TF.GenerationSoftware,Altium Limited,Altium Designer,23.0.1 (38)*
G04*
G04 Layer_Color=8388736*
%FSLAX44Y44*%
%MOMM*%
G71*
G04*
G04 #@! TF.SameCoordinates,2D7356CF-675D-4ACF-94B8-B66EBF17F18F*
G04*
G04*
G04 #@! TF.FilePolarity,Negative*
G04*
G01*
G75*
%ADD11C,0.9532*%
%ADD12C,3.2032*%
%ADD13C,0.5032*%
G36*
X100000Y0D02*
X0D01*
Y204300D01*
X100000D01*
Y0D01*
D02*
G37*
%LPC*%
G36*
X51524Y120050D02*
X17500D01*
Y84250D01*
X51524Y84250D01*
Y120050D01*
D02*
G37*
%LPD*%
D11*
X37900Y92150D02*
D03*
Y112150D02*
D03*
X27900Y102150D02*
D03*
D12*
X37900Y54150D02*
D03*
Y150150D02*
D03*
D13*
X91000Y196000D02*
D03*
X86000Y186000D02*
D03*
X91000Y116000D02*
D03*
X86000Y106000D02*
D03*
X91000Y96000D02*
D03*
X86000Y26000D02*
D03*
X91000Y16000D02*
D03*
X86000Y6000D02*
D03*
X81000Y196000D02*
D03*
X76000Y186000D02*
D03*
Y106000D02*
D03*
X81000Y96000D02*
D03*
Y16000D02*
D03*
X76000Y6000D02*
D03*
X71000Y196000D02*
D03*
X66000Y186000D02*
D03*
Y26000D02*
D03*
X71000Y16000D02*
D03*
X66000Y6000D02*
D03*
X61000Y196000D02*
D03*
X56000Y186000D02*
D03*
Y166000D02*
D03*
Y126000D02*
D03*
Y66000D02*
D03*
Y26000D02*
D03*
X61000Y16000D02*
D03*
X56000Y6000D02*
D03*
X51000Y196000D02*
D03*
X46000Y186000D02*
D03*
X51000Y176000D02*
D03*
X46000Y126000D02*
D03*
X51000Y76000D02*
D03*
Y36000D02*
D03*
X46000Y26000D02*
D03*
X51000Y16000D02*
D03*
X46000Y6000D02*
D03*
X41000Y196000D02*
D03*
X36000Y186000D02*
D03*
X41000Y176000D02*
D03*
Y76000D02*
D03*
X36000Y26000D02*
D03*
X41000Y16000D02*
D03*
X36000Y6000D02*
D03*
X31000Y196000D02*
D03*
X26000Y186000D02*
D03*
X31000Y176000D02*
D03*
X26000Y126000D02*
D03*
X31000Y76000D02*
D03*
X26000Y26000D02*
D03*
X31000Y16000D02*
D03*
X26000Y6000D02*
D03*
X21000Y196000D02*
D03*
X16000Y186000D02*
D03*
X21000Y176000D02*
D03*
X16000Y166000D02*
D03*
Y146000D02*
D03*
X21000Y136000D02*
D03*
X16000Y126000D02*
D03*
X21000Y76000D02*
D03*
X16000Y66000D02*
D03*
Y46000D02*
D03*
X21000Y36000D02*
D03*
X16000Y26000D02*
D03*
X21000Y16000D02*
D03*
X16000Y6000D02*
D03*
X11000Y196000D02*
D03*
X6000Y186000D02*
D03*
X11000Y176000D02*
D03*
X6000Y166000D02*
D03*
X11000Y156000D02*
D03*
X6000Y146000D02*
D03*
X11000Y136000D02*
D03*
X6000Y126000D02*
D03*
X11000Y116000D02*
D03*
X6000Y106000D02*
D03*
X11000Y96000D02*
D03*
X6000Y86000D02*
D03*
X11000Y76000D02*
D03*
X6000Y66000D02*
D03*
X11000Y56000D02*
D03*
X6000Y46000D02*
D03*
X11000Y36000D02*
D03*
X6000Y26000D02*
D03*
X11000Y16000D02*
D03*
X6000Y6000D02*
D03*
M02*
