M48
;Layer_Color=9474304
;FILE_FORMAT=4:4
METRIC,LZ
;TYPE=PLATED
T1F00S00C0.3000
T2F00S00C0.5500
T3F00S00C2.4000
%
T01
X00006Y00006
X00016
X00026
X00036
X00046
X00056
X00066
X00076
X00086
X00091Y00016
X00081
X00071
X00061
X00051
X00041
X00031
X00021
X00011
X00006Y00026
X00016
X00026
X00036
X00046
X00056
X00066
X00064159Y00033792
X00063839Y00041786
Y00049786
Y00057786
Y00065786
X00056Y00066
X00051Y00076
X00041
X000379Y0008175
X00031Y00076
X00021
X00011
X00006Y00086
X00016
X00021Y00091664
X0002917Y00087255
X00011Y00096
X00016Y00105115
X00006Y00106
X00011Y00116
X00021
X00031463Y00118566
X00026Y00126
X00016
X00006
X00011Y00136
X00021
X00038845Y0012415
X00046Y00126
X00056
X00055Y0012005
X00063839Y0012515
Y00133051
Y00141051
X0007595Y00126489
X00083906Y00127321
X00086161Y00134996
X00091Y00116
X00086Y00106
X00076
X00073Y00111205
X00068Y00104965
Y00099392
X00071532Y00094841
X00076Y000895
X00081Y00096
X00091
X0008567Y00074922
X00086161Y00066937
Y00058937
Y00050937
Y00042937
X00086094Y00034937
X00086Y00026
X00079445Y00030489
X00071445
X00051Y00036
X00021
X00011
X00006Y00046
X00016
X00011Y00056
X00006Y00066
X00016
X0006399Y00073784
X00064952Y00081727
X0007821Y00077811
X00041927Y0010215
X00063839Y00149051
Y00157051
Y00165051
X00056Y00166
X00051Y00176
X00041
X00031
X00021
X00011
X00006Y00186
X00016
X00026
X00036
X00046
X00056
X00066
X00076
X00086
X00091Y00196
X00081
X00071
X00061
X00051
X00041
X00031
X00021
X00011
X00006Y00166
X00016
X00011Y00156
X00006Y00146
X00016
X00086161Y00142996
Y00150996
Y00158996
Y00166996
X00081828Y00173721
X00073762Y00173811
X00065826Y001728
T02
X000379Y0009215
Y0011215
X000279Y0010215
T03
X000379Y0005415
Y0015015
M30
